<svg id="visual" viewBox="0 0 900 600" width="900" height="600" xmlns="http://www.w3.org/2000/svg" xmlns:xlink="http://www.w3.org/1999/xlink" version="1.1"><g transform="translate(453.6226269804226 289.20486431250447)"><path d="M155.8 -219.5C186.3 -192.4 184.4 -125.8 210.5 -64.1C236.5 -2.3 290.4 54.8 291.4 108C292.4 161.1 240.5 210.4 183.2 227.6C125.8 244.8 62.9 229.9 -5.3 237.2C-73.5 244.5 -146.9 273.9 -204.8 256.9C-262.7 239.9 -304.9 176.3 -297.9 116.1C-290.9 55.9 -234.6 -1 -209 -64.2C-183.3 -127.4 -188.4 -196.8 -158.6 -224.1C-128.9 -251.4 -64.5 -236.7 -0.9 -235.5C62.7 -234.3 125.4 -246.6 155.8 -219.5" fill="#E8DCCA"></path></g></svg>